<svg width="1440" height="154" viewBox="0 0 1440 154" fill="none" xmlns="http://www.w3.org/2000/svg">
<path opacity="0.33" d="M754.941 50.0023C1066.77 -85.026 1157.3 101.995 1244.78 50.0023C1377.37 -29.2102 1478.3 61.6242 1478.3 61.6242V152.917H-51V61.6242C-51 61.6242 43.9695 21.7121 94.1306 16.8187C144.292 11.7723 190.171 35.6278 210.052 50.614C245.684 77.0692 338.513 139.613 415.589 145.73C492.666 151.847 725.273 62.6947 754.941 50.0023Z" fill="#32B9FF"/>
<path d="M306.703 108.724C612.563 196.653 713.497 8.56102 910.93 78.9042C1108.21 150.165 1108.21 144.66 1195.69 121.416C1282.55 98.1721 1275.97 84.2564 1340.82 72.6345C1434.56 55.5075 1478.3 152.917 1478.3 152.917H-51C-51 152.917 -35.86 90.3732 76.8494 79.363C189.559 68.3527 209.593 81.0451 306.703 108.724Z" fill="#32B9FF"/>
<path d="M366.794 50.3392C436.377 50.3392 484.856 85.8167 564.226 110.131C607.964 123.435 794.08 125.576 952.669 50.3392C1111.26 -24.8974 1092.91 102.944 1180.84 50.3392C1312.36 -27.65 1489.3 92.3922 1489.3 92.3922V153.254H-40V97.4386C-40 97.4386 3.12622 125.729 100.849 125.729C250.261 125.576 303.022 50.3392 366.794 50.3392Z" fill="#32B9FF"/>
</svg>
